<svg xmlns="http://www.w3.org/2000/svg" width="512" height="512" viewBox="0 0 512 512" fill="none"><path d="M378.534 124.193C382.15 118.396 387.548 113.927 393.917 111.454C400.287 108.982 407.286 108.639 413.866 110.478C420.447 112.317 426.254 116.238 430.419 121.654C434.584 127.07 436.883 133.69 436.97 140.522L376.222 127.9L378.534 124.193ZM328.181 144.387L369.839 134.742L438.954 149.1L476.2 179.359C463.43 180.963 450.462 179.566 438.327 175.277L423.99 170.218C407.73 164.483 390.829 160.762 373.664 159.138L357.83 157.638C346.753 156.625 336.325 151.965 328.181 144.387V144.387ZM419.581 190.211L411.822 174.694C415.013 175.646 418.187 176.654 421.328 177.763L435.665 182.822C438.796 183.92 441.984 184.846 445.216 185.596C446.734 194.049 447.732 202.587 448.206 211.161L439.07 211C438.289 210.975 437.518 211.185 436.856 211.602C436.195 212.02 435.674 212.625 435.36 213.341L414.06 260.084L413.897 259.867C407.491 251.288 404.02 240.874 403.997 230.167C403.979 223.663 405.251 217.219 407.74 211.21C410.229 205.2 413.885 199.744 418.497 195.157L418.825 194.829C419.42 194.236 419.812 193.471 419.947 192.642C420.082 191.813 419.953 190.963 419.578 190.211H419.581ZM364 192V166.26L372.908 167.103C382.534 168.02 392.082 169.624 401.479 171.903L411.157 191.258C401.882 201.3 396.521 214.338 396.05 228H388V216C388 214.939 387.579 213.922 386.829 213.172C386.078 212.422 385.061 212 384 212C378.698 211.994 373.614 209.885 369.865 206.136C366.115 202.386 364.006 197.303 364 192V192ZM346.88 246.766L384.56 236H396.314C396.471 237.513 396.687 239.017 396.963 240.512C391.258 239.236 385.285 240.032 380.113 242.758C374.941 245.484 370.908 249.961 368.736 255.389L358.225 281.668L332.439 262.329C333.207 258.669 334.956 255.286 337.5 252.544C340.044 249.802 343.287 247.805 346.88 246.766V246.766ZM284 180H292.877L293.124 180.986C294.347 185.897 294.954 190.94 294.933 196H284V180ZM258.876 180.987L259.123 180H276V196H257.06C257.043 190.94 257.653 185.897 258.876 180.987ZM260.129 214.964C258.952 211.395 258.107 207.725 257.605 204H294.388C293.718 208.978 292.439 213.855 290.578 218.521L264.97 212.121C263.992 211.877 262.958 212.01 262.075 212.495C261.192 212.98 260.524 213.781 260.205 214.737L260.129 214.964ZM282.829 253.172C282.643 252.986 282.438 252.818 282.219 252.672L260.761 238.366L266.624 220.779L291.99 227.121H292V240C292 240.621 292.145 241.234 292.422 241.789C292.7 242.344 293.103 242.828 293.6 243.2L357.6 291.2C358.091 291.569 358.661 291.819 359.264 291.932C359.868 292.045 360.489 292.017 361.08 291.852C361.672 291.686 362.217 291.386 362.673 290.976C363.13 290.565 363.486 290.055 363.714 289.485L376.164 258.359C377.035 256.177 378.359 254.205 380.049 252.574C381.74 250.943 383.758 249.69 385.969 248.898C388.181 248.105 390.536 247.792 392.877 247.979C395.219 248.166 397.494 248.848 399.552 249.981C401.472 255.238 404.15 260.186 407.501 264.668L410.285 268.379L386.4 320.794C386.368 320.858 386.324 320.914 386.294 320.98C385.071 323.732 383.197 326.145 380.834 328.011C378.47 329.876 375.687 331.139 372.727 331.689C369.766 332.238 366.716 332.059 363.84 331.167C360.964 330.274 358.348 328.695 356.219 326.565L282.829 253.172ZM397.38 316H444.919L437.453 332H390.09L397.38 316ZM292 292H294.111C299.09 291.999 304.058 291.533 308.95 290.607L350.344 332H292V292ZM267.986 285.545L284 290.883V332H245.492C252.384 326.35 257.966 319.269 261.85 311.247C265.734 303.226 267.828 294.456 267.986 285.545ZM151.01 233.133C154.18 227.245 158.77 222.242 164.362 218.576C169.955 214.91 176.374 212.698 183.037 212.14C189.701 211.582 196.399 212.696 202.523 215.381C208.647 218.065 214.005 222.236 218.11 227.514L260 281.373V284.223C260.033 293.753 257.522 303.119 252.727 311.355C247.932 319.591 241.027 326.399 232.723 331.075C228.741 330.152 224.945 328.557 221.499 326.359L216.261 322.3C210.741 317.176 206.974 310.445 205.491 303.061L203.922 295.216C203.875 294.977 203.805 294.742 203.714 294.516L187.714 254.516C187.446 253.847 187.003 253.262 186.43 252.824C185.857 252.386 185.176 252.111 184.46 252.028C183.743 251.945 183.018 252.057 182.36 252.353C181.702 252.648 181.137 253.116 180.723 253.707L125.917 332H84.7541C85.5716 329.915 87.0102 328.131 88.8751 326.891L106.219 315.328C106.763 314.965 107.21 314.473 107.519 313.896L151.01 233.133ZM168.422 285.233L183.034 264.358L196.15 297.148L197.65 304.632C197.925 306.002 198.266 307.345 198.662 308.663L168.422 285.233ZM63.2071 326.45L82.8291 306.828C83.1326 306.524 83.3855 306.173 83.5781 305.789L114.2 244.543C116.936 239.001 121.334 234.451 126.781 231.528C132.228 228.606 138.451 227.458 144.582 228.243C144.373 228.607 144.165 228.972 143.965 229.343L100.95 309.229L84.4381 320.234C80.3406 322.964 77.4704 327.186 76.4381 332H60.2181C60.6445 329.896 61.6846 327.964 63.2071 326.45V326.45ZM45.8591 404H31.4741L58.1411 364H72.5261L45.8591 404ZM93.8591 404H79.4741L106.141 364H120.526L93.8591 404ZM384.526 404H370.141L343.474 364H357.859L384.526 404ZM432.526 404H418.141L391.474 364H405.859L432.526 404ZM467.516 340L467.902 356H35.9021L35.5161 340H467.516ZM448.653 308H401.024L408.314 292H456.119L448.653 308ZM459.853 284H411.959L419.249 268H467.319L459.853 284ZM471.053 260H422.893L430.183 244H478.519L471.053 260ZM482.253 236H433.828L441.553 219.045L489.77 219.892L482.253 236Z" fill="#de3e0d" id="id_109"></path><path d="M297.79 155.58L284 162.47V172H276V160C276.002 159.257 276.209 158.53 276.599 157.898C276.989 157.266 277.547 156.754 278.21 156.42L294.21 148.42C295.159 147.945 296.259 147.867 297.266 148.203C298.273 148.539 299.105 149.261 299.58 150.21C300.055 151.16 300.133 152.259 299.797 153.266C299.461 154.273 298.739 155.105 297.79 155.58V155.58Z" fill="black" id="id_110"></path></svg>